<svg width="1024" height="753" viewBox="0 0 1024 753" fill="none" xmlns="http://www.w3.org/2000/svg">
<g opacity="0.2" filter="url(#filter0_f_175_198)">
<ellipse cx="513" cy="92.5166" rx="617" ry="396.517" fill="#338AF3"/>
</g>
<path d="M71.792 359.882C73.168 359.882 74.2096 360.596 74.9169 362.025C75.6371 363.437 75.9972 365.493 75.9972 368.193C75.9972 370.893 75.6371 372.957 74.9169 374.385C74.2096 375.814 73.168 376.528 71.792 376.528C70.4288 376.528 69.3872 375.814 68.667 374.385C67.9469 372.957 67.5868 370.893 67.5868 368.193C67.5868 365.509 67.9469 363.453 68.667 362.025C69.3872 360.596 70.4288 359.882 71.792 359.882ZM68.9564 368.193C68.9564 370.108 69.0979 371.607 69.3808 372.69L73.6631 362.26C73.213 361.522 72.5893 361.153 71.792 361.153C70.9047 361.153 70.2102 361.734 69.7087 362.896C69.2072 364.042 68.9564 365.807 68.9564 368.193ZM71.792 375.233C72.6922 375.233 73.393 374.66 73.8946 373.514C74.3961 372.353 74.6469 370.579 74.6469 368.193C74.6469 366.168 74.4861 364.599 74.1646 363.484L69.8823 374.009C70.3453 374.825 70.9818 375.233 71.792 375.233Z" fill="url(#paint0_linear_175_198)" fill-opacity="0.6"/>
<path d="M72.9494 401.952H75.785V403.2H68.4356V401.952H71.7148V388.72L68.5899 391.004L68.0498 389.945L71.9077 387.025H72.9494V401.952Z" fill="url(#paint1_linear_175_198)" fill-opacity="0.6"/>
<path d="M71.792 413.697C73.168 413.697 74.2096 414.412 74.9169 415.84C75.6371 417.253 75.9972 419.309 75.9972 422.009C75.9972 424.708 75.6371 426.772 74.9169 428.201C74.2096 429.629 73.168 430.343 71.792 430.343C70.4288 430.343 69.3872 429.629 68.667 428.201C67.9469 426.772 67.5868 424.708 67.5868 422.009C67.5868 419.325 67.9469 417.268 68.667 415.84C69.3872 414.412 70.4288 413.697 71.792 413.697ZM68.9564 422.009C68.9564 423.923 69.0979 425.422 69.3808 426.506L73.6631 416.075C73.213 415.338 72.5893 414.969 71.792 414.969C70.9047 414.969 70.2102 415.55 69.7087 416.711C69.2072 417.857 68.9564 419.623 68.9564 422.009ZM71.792 429.048C72.6922 429.048 73.393 428.475 73.8946 427.33C74.3961 426.168 74.6469 424.394 74.6469 422.009C74.6469 419.984 74.4861 418.414 74.1646 417.3L69.8823 427.824C70.3453 428.64 70.9818 429.048 71.792 429.048Z" fill="url(#paint2_linear_175_198)" fill-opacity="0.6"/>
<path d="M72.9494 455.768H75.785V457.015H68.4356V455.768H71.7148V442.536L68.5899 444.82L68.0498 443.76L71.9077 440.841H72.9494V455.768Z" fill="url(#paint3_linear_175_198)" fill-opacity="0.6"/>
<path d="M72.9494 482.675H75.785V483.923H68.4356V482.675H71.7148V469.443L68.5899 471.727L68.0498 470.668L71.9077 467.748H72.9494V482.675Z" fill="url(#paint4_linear_175_198)" fill-opacity="0.6"/>
<path d="M71.792 494.421C73.168 494.421 74.2096 495.135 74.9169 496.563C75.6371 497.976 75.9972 500.032 75.9972 502.732C75.9972 505.431 75.6371 507.495 74.9169 508.924C74.2096 510.352 73.168 511.066 71.792 511.066C70.4288 511.066 69.3872 510.352 68.667 508.924C67.9469 507.495 67.5868 505.431 67.5868 502.732C67.5868 500.048 67.9469 497.991 68.667 496.563C69.3872 495.135 70.4288 494.421 71.792 494.421ZM68.9564 502.732C68.9564 504.647 69.0979 506.146 69.3808 507.229L73.6631 496.798C73.213 496.061 72.5893 495.692 71.792 495.692C70.9047 495.692 70.2102 496.273 69.7087 497.434C69.2072 498.58 68.9564 500.346 68.9564 502.732ZM71.792 509.771C72.6922 509.771 73.393 509.198 73.8946 508.053C74.3961 506.891 74.6469 505.117 74.6469 502.732C74.6469 500.707 74.4861 499.137 74.1646 498.023L69.8823 508.547C70.3453 509.363 70.9818 509.771 71.792 509.771Z" fill="url(#paint5_linear_175_198)" fill-opacity="0.6"/>
<path d="M72.9494 536.491H75.785V537.739H68.4356V536.491H71.7148V523.259L68.5899 525.543L68.0498 524.483L71.9077 521.564H72.9494V536.491Z" fill="url(#paint6_linear_175_198)" fill-opacity="0.6"/>
<path d="M71.792 548.236C73.168 548.236 74.2096 548.95 74.9169 550.378C75.6371 551.791 75.9972 553.847 75.9972 556.547C75.9972 559.247 75.6371 561.311 74.9169 562.739C74.2096 564.167 73.168 564.882 71.792 564.882C70.4288 564.882 69.3872 564.167 68.667 562.739C67.9469 561.311 67.5868 559.247 67.5868 556.547C67.5868 553.863 67.9469 551.807 68.667 550.378C69.3872 548.95 70.4288 548.236 71.792 548.236ZM68.9564 556.547C68.9564 558.462 69.0979 559.961 69.3808 561.044L73.6631 550.614C73.213 549.876 72.5893 549.507 71.792 549.507C70.9047 549.507 70.2102 550.088 69.7087 551.25C69.2072 552.395 68.9564 554.161 68.9564 556.547ZM71.792 563.587C72.6922 563.587 73.393 563.014 73.8946 561.868C74.3961 560.706 74.6469 558.933 74.6469 556.547C74.6469 554.522 74.4861 552.953 74.1646 551.838L69.8823 562.362C70.3453 563.179 70.9818 563.587 71.792 563.587Z" fill="url(#paint7_linear_175_198)" fill-opacity="0.6"/>
<path d="M71.792 575.144C73.168 575.144 74.2096 575.858 74.9169 577.286C75.6371 578.699 75.9972 580.755 75.9972 583.455C75.9972 586.154 75.6371 588.218 74.9169 589.647C74.2096 591.075 73.168 591.789 71.792 591.789C70.4288 591.789 69.3872 591.075 68.667 589.647C67.9469 588.218 67.5868 586.154 67.5868 583.455C67.5868 580.771 67.9469 578.714 68.667 577.286C69.3872 575.858 70.4288 575.144 71.792 575.144ZM68.9564 583.455C68.9564 585.37 69.0979 586.869 69.3808 587.952L73.6631 577.522C73.213 576.784 72.5893 576.415 71.792 576.415C70.9047 576.415 70.2102 576.996 69.7087 578.157C69.2072 579.303 68.9564 581.069 68.9564 583.455ZM71.792 590.494C72.6922 590.494 73.393 589.921 73.8946 588.776C74.3961 587.614 74.6469 585.841 74.6469 583.455C74.6469 581.43 74.4861 579.86 74.1646 578.746L69.8823 589.27C70.3453 590.086 70.9818 590.494 71.792 590.494Z" fill="url(#paint8_linear_175_198)" fill-opacity="0.6"/>
<path d="M72.9494 617.214H75.785V618.462H68.4356V617.214H71.7148V603.982L68.5899 606.266L68.0498 605.206L71.9077 602.287H72.9494V617.214Z" fill="url(#paint9_linear_175_198)" fill-opacity="0.6"/>
<path d="M71.792 628.959C73.168 628.959 74.2096 629.673 74.9169 631.101C75.6371 632.514 75.9972 634.57 75.9972 637.27C75.9972 639.97 75.6371 642.034 74.9169 643.462C74.2096 644.891 73.168 645.605 71.792 645.605C70.4288 645.605 69.3872 644.891 68.667 643.462C67.9469 642.034 67.5868 639.97 67.5868 637.27C67.5868 634.586 67.9469 632.53 68.667 631.101C69.3872 629.673 70.4288 628.959 71.792 628.959ZM68.9564 637.27C68.9564 639.185 69.0979 640.684 69.3808 641.767L73.6631 631.337C73.213 630.599 72.5893 630.23 71.792 630.23C70.9047 630.23 70.2102 630.811 69.7087 631.973C69.2072 633.118 68.9564 634.884 68.9564 637.27ZM71.792 644.31C72.6922 644.31 73.393 643.737 73.8946 642.591C74.3961 641.43 74.6469 639.656 74.6469 637.27C74.6469 635.245 74.4861 633.676 74.1646 632.561L69.8823 643.085C70.3453 643.902 70.9818 644.31 71.792 644.31Z" fill="url(#paint10_linear_175_198)" fill-opacity="0.6"/>
<path d="M72.9494 671.029H75.785V672.277H68.4356V671.029H71.7148V657.797L68.5899 660.081L68.0498 659.022L71.9077 656.102H72.9494V671.029Z" fill="url(#paint11_linear_175_198)" fill-opacity="0.6"/>
<path d="M72.9494 697.937H75.785V699.185H68.4356V697.937H71.7148V684.705L68.5899 686.989L68.0498 685.929L71.9077 683.01H72.9494V697.937Z" fill="url(#paint12_linear_175_198)" fill-opacity="0.6"/>
<path d="M107.616 413.697C108.992 413.697 110.034 414.412 110.741 415.84C111.461 417.253 111.821 419.309 111.821 422.009C111.821 424.708 111.461 426.772 110.741 428.201C110.034 429.629 108.992 430.343 107.616 430.343C106.253 430.343 105.211 429.629 104.491 428.201C103.771 426.772 103.411 424.708 103.411 422.009C103.411 419.325 103.771 417.268 104.491 415.84C105.211 414.412 106.253 413.697 107.616 413.697ZM104.78 422.009C104.78 423.923 104.922 425.422 105.205 426.506L109.487 416.075C109.037 415.338 108.413 414.969 107.616 414.969C106.729 414.969 106.034 415.55 105.533 416.711C105.031 417.857 104.78 419.623 104.78 422.009ZM107.616 429.048C108.516 429.048 109.217 428.475 109.718 427.33C110.22 426.168 110.471 424.394 110.471 422.009C110.471 419.984 110.31 418.414 109.989 417.3L105.706 427.824C106.169 428.64 106.806 429.048 107.616 429.048Z" fill="url(#paint13_linear_175_198)" fill-opacity="0.6"/>
<path d="M108.773 455.768H111.609V457.015H104.259V455.768H107.539V442.536L104.414 444.82L103.874 443.76L107.732 440.841H108.773V455.768Z" fill="url(#paint14_linear_175_198)" fill-opacity="0.6"/>
<path d="M107.616 467.513C108.992 467.513 110.034 468.227 110.741 469.655C111.461 471.068 111.821 473.124 111.821 475.824C111.821 478.524 111.461 480.588 110.741 482.016C110.034 483.444 108.992 484.159 107.616 484.159C106.253 484.159 105.211 483.444 104.491 482.016C103.771 480.588 103.411 478.524 103.411 475.824C103.411 473.14 103.771 471.084 104.491 469.655C105.211 468.227 106.253 467.513 107.616 467.513ZM104.78 475.824C104.78 477.739 104.922 479.238 105.205 480.321L109.487 469.891C109.037 469.153 108.413 468.784 107.616 468.784C106.729 468.784 106.034 469.365 105.533 470.526C105.031 471.672 104.78 473.438 104.78 475.824ZM107.616 482.864C108.516 482.864 109.217 482.291 109.718 481.145C110.22 479.983 110.471 478.21 110.471 475.824C110.471 473.799 110.31 472.23 109.989 471.115L105.706 481.639C106.169 482.456 106.806 482.864 107.616 482.864Z" fill="url(#paint15_linear_175_198)" fill-opacity="0.6"/>
<path d="M107.616 494.421C108.992 494.421 110.034 495.135 110.741 496.563C111.461 497.976 111.821 500.032 111.821 502.732C111.821 505.431 111.461 507.495 110.741 508.924C110.034 510.352 108.992 511.066 107.616 511.066C106.253 511.066 105.211 510.352 104.491 508.924C103.771 507.495 103.411 505.431 103.411 502.732C103.411 500.048 103.771 497.991 104.491 496.563C105.211 495.135 106.253 494.421 107.616 494.421ZM104.78 502.732C104.78 504.647 104.922 506.146 105.205 507.229L109.487 496.798C109.037 496.061 108.413 495.692 107.616 495.692C106.729 495.692 106.034 496.273 105.533 497.434C105.031 498.58 104.78 500.346 104.78 502.732ZM107.616 509.771C108.516 509.771 109.217 509.198 109.718 508.053C110.22 506.891 110.471 505.117 110.471 502.732C110.471 500.707 110.31 499.137 109.989 498.023L105.706 508.547C106.169 509.363 106.806 509.771 107.616 509.771Z" fill="url(#paint16_linear_175_198)" fill-opacity="0.6"/>
<path d="M108.773 536.491H111.609V537.739H104.259V536.491H107.539V523.259L104.414 525.543L103.874 524.483L107.732 521.564H108.773V536.491Z" fill="url(#paint17_linear_175_198)" fill-opacity="0.6"/>
<path d="M107.616 548.236C108.992 548.236 110.034 548.95 110.741 550.378C111.461 551.791 111.821 553.847 111.821 556.547C111.821 559.247 111.461 561.311 110.741 562.739C110.034 564.167 108.992 564.882 107.616 564.882C106.253 564.882 105.211 564.167 104.491 562.739C103.771 561.311 103.411 559.247 103.411 556.547C103.411 553.863 103.771 551.807 104.491 550.378C105.211 548.95 106.253 548.236 107.616 548.236ZM104.78 556.547C104.78 558.462 104.922 559.961 105.205 561.044L109.487 550.614C109.037 549.876 108.413 549.507 107.616 549.507C106.729 549.507 106.034 550.088 105.533 551.25C105.031 552.395 104.78 554.161 104.78 556.547ZM107.616 563.587C108.516 563.587 109.217 563.014 109.718 561.868C110.22 560.706 110.471 558.933 110.471 556.547C110.471 554.522 110.31 552.953 109.989 551.838L105.706 562.362C106.169 563.179 106.806 563.587 107.616 563.587Z" fill="url(#paint18_linear_175_198)" fill-opacity="0.6"/>
<path d="M108.773 590.306H111.609V591.554H104.259V590.306H107.539V577.074L104.414 579.358L103.874 578.298L107.732 575.379H108.773V590.306Z" fill="url(#paint19_linear_175_198)" fill-opacity="0.6"/>
<path d="M107.616 602.051C108.992 602.051 110.034 602.765 110.741 604.194C111.461 605.606 111.821 607.663 111.821 610.362C111.821 613.062 111.461 615.126 110.741 616.554C110.034 617.983 108.992 618.697 107.616 618.697C106.253 618.697 105.211 617.983 104.491 616.554C103.771 615.126 103.411 613.062 103.411 610.362C103.411 607.678 103.771 605.622 104.491 604.194C105.211 602.765 106.253 602.051 107.616 602.051ZM104.78 610.362C104.78 612.277 104.922 613.776 105.205 614.859L109.487 604.429C109.037 603.692 108.413 603.323 107.616 603.323C106.729 603.323 106.034 603.903 105.533 605.065C105.031 606.211 104.78 607.977 104.78 610.362ZM107.616 617.402C108.516 617.402 109.217 616.829 109.718 615.683C110.22 614.522 110.471 612.748 110.471 610.362C110.471 608.338 110.31 606.768 109.989 605.654L105.706 616.178C106.169 616.994 106.806 617.402 107.616 617.402Z" fill="url(#paint20_linear_175_198)" fill-opacity="0.6"/>
<path d="M107.616 628.959C108.992 628.959 110.034 629.673 110.741 631.101C111.461 632.514 111.821 634.57 111.821 637.27C111.821 639.97 111.461 642.034 110.741 643.462C110.034 644.891 108.992 645.605 107.616 645.605C106.253 645.605 105.211 644.891 104.491 643.462C103.771 642.034 103.411 639.97 103.411 637.27C103.411 634.586 103.771 632.53 104.491 631.101C105.211 629.673 106.253 628.959 107.616 628.959ZM104.78 637.27C104.78 639.185 104.922 640.684 105.205 641.767L109.487 631.337C109.037 630.599 108.413 630.23 107.616 630.23C106.729 630.23 106.034 630.811 105.533 631.973C105.031 633.118 104.78 634.884 104.78 637.27ZM107.616 644.31C108.516 644.31 109.217 643.737 109.718 642.591C110.22 641.43 110.471 639.656 110.471 637.27C110.471 635.245 110.31 633.676 109.989 632.561L105.706 643.085C106.169 643.902 106.806 644.31 107.616 644.31Z" fill="url(#paint21_linear_175_198)" fill-opacity="0.6"/>
<path d="M108.773 671.029H111.609V672.277H104.259V671.029H107.539V657.797L104.414 660.081L103.874 659.022L107.732 656.102H108.773V671.029Z" fill="url(#paint22_linear_175_198)" fill-opacity="0.6"/>
<path d="M107.616 682.774C108.992 682.774 110.034 683.488 110.741 684.917C111.461 686.329 111.821 688.386 111.821 691.085C111.821 693.785 111.461 695.849 110.741 697.278C110.034 698.706 108.992 699.42 107.616 699.42C106.253 699.42 105.211 698.706 104.491 697.278C103.771 695.849 103.411 693.785 103.411 691.085C103.411 688.401 103.771 686.345 104.491 684.917C105.211 683.488 106.253 682.774 107.616 682.774ZM104.78 691.085C104.78 693 104.922 694.499 105.205 695.582L109.487 685.152C109.037 684.415 108.413 684.046 107.616 684.046C106.729 684.046 106.034 684.626 105.533 685.788C105.031 686.934 104.78 688.7 104.78 691.085ZM107.616 698.125C108.516 698.125 109.217 697.552 109.718 696.406C110.22 695.245 110.471 693.471 110.471 691.085C110.471 689.061 110.31 687.491 109.989 686.377L105.706 696.901C106.169 697.717 106.806 698.125 107.616 698.125Z" fill="url(#paint23_linear_175_198)" fill-opacity="0.6"/>
<path d="M108.773 724.845H111.609V726.092H104.259V724.845H107.539V711.613L104.414 713.896L103.874 712.837L107.732 709.917H108.773V724.845Z" fill="url(#paint24_linear_175_198)" fill-opacity="0.6"/>
<path d="M108.773 751.752H111.609V753H104.259V751.752H107.539V738.52L104.414 740.804L103.874 739.745L107.732 736.825H108.773V751.752Z" fill="url(#paint25_linear_175_198)" fill-opacity="0.6"/>
<path d="M53.88 440.605C55.256 440.605 56.2977 441.319 57.005 442.748C57.7251 444.16 58.0852 446.217 58.0852 448.916C58.0852 451.616 57.7251 453.68 57.005 455.108C56.2977 456.537 55.256 457.251 53.88 457.251C52.5169 457.251 51.4752 456.537 50.7551 455.108C50.0349 453.68 49.6749 451.616 49.6749 448.916C49.6749 446.232 50.0349 444.176 50.7551 442.748C51.4752 441.319 52.5169 440.605 53.88 440.605ZM51.0444 448.916C51.0444 450.831 51.1859 452.33 51.4688 453.413L55.7512 442.983C55.3011 442.245 54.6774 441.877 53.88 441.877C52.9927 441.877 52.2983 442.457 51.7967 443.619C51.2952 444.765 51.0444 446.53 51.0444 448.916ZM53.88 455.956C54.7802 455.956 55.4811 455.383 55.9826 454.237C56.4842 453.076 56.7349 451.302 56.7349 448.916C56.7349 446.891 56.5742 445.322 56.2527 444.207L51.9704 454.732C52.4333 455.548 53.0699 455.956 53.88 455.956Z" fill="url(#paint26_linear_175_198)" fill-opacity="0.6"/>
<path d="M53.88 467.513C55.256 467.513 56.2977 468.227 57.005 469.655C57.7251 471.068 58.0852 473.124 58.0852 475.824C58.0852 478.524 57.7251 480.588 57.005 482.016C56.2977 483.444 55.256 484.159 53.88 484.159C52.5169 484.159 51.4752 483.444 50.7551 482.016C50.0349 480.588 49.6749 478.524 49.6749 475.824C49.6749 473.14 50.0349 471.084 50.7551 469.655C51.4752 468.227 52.5169 467.513 53.88 467.513ZM51.0444 475.824C51.0444 477.739 51.1859 479.238 51.4688 480.321L55.7512 469.891C55.3011 469.153 54.6774 468.784 53.88 468.784C52.9927 468.784 52.2983 469.365 51.7967 470.526C51.2952 471.672 51.0444 473.438 51.0444 475.824ZM53.88 482.864C54.7802 482.864 55.4811 482.291 55.9826 481.145C56.4842 479.983 56.7349 478.21 56.7349 475.824C56.7349 473.799 56.5742 472.23 56.2527 471.115L51.9704 481.639C52.4333 482.456 53.0699 482.864 53.88 482.864Z" fill="url(#paint27_linear_175_198)" fill-opacity="0.6"/>
<path d="M55.0374 509.583H57.873V510.831H50.5236V509.583H53.8029V496.351L50.6779 498.635L50.1378 497.575L53.9958 494.656H55.0374V509.583Z" fill="url(#paint28_linear_175_198)" fill-opacity="0.6"/>
<path d="M53.88 521.328C55.256 521.328 56.2977 522.042 57.005 523.471C57.7251 524.883 58.0852 526.94 58.0852 529.639C58.0852 532.339 57.7251 534.403 57.005 535.831C56.2977 537.26 55.256 537.974 53.88 537.974C52.5169 537.974 51.4752 537.26 50.7551 535.831C50.0349 534.403 49.6749 532.339 49.6749 529.639C49.6749 526.955 50.0349 524.899 50.7551 523.471C51.4752 522.042 52.5169 521.328 53.88 521.328ZM51.0444 529.639C51.0444 531.554 51.1859 533.053 51.4688 534.136L55.7512 523.706C55.3011 522.968 54.6774 522.6 53.88 522.6C52.9927 522.6 52.2983 523.18 51.7967 524.342C51.2952 525.488 51.0444 527.253 51.0444 529.639ZM53.88 536.679C54.7802 536.679 55.4811 536.106 55.9826 534.96C56.4842 533.799 56.7349 532.025 56.7349 529.639C56.7349 527.615 56.5742 526.045 56.2527 524.93L51.9704 535.455C52.4333 536.271 53.0699 536.679 53.88 536.679Z" fill="url(#paint29_linear_175_198)" fill-opacity="0.6"/>
<path d="M55.0374 563.398H57.873V564.646H50.5236V563.398H53.8029V550.167L50.6779 552.45L50.1378 551.391L53.9958 548.471H55.0374V563.398Z" fill="url(#paint30_linear_175_198)" fill-opacity="0.6"/>
<path d="M55.0374 590.306H57.873V591.554H50.5236V590.306H53.8029V577.074L50.6779 579.358L50.1378 578.298L53.9958 575.379H55.0374V590.306Z" fill="url(#paint31_linear_175_198)" fill-opacity="0.6"/>
<path d="M90.8613 401.952H93.6969V403.2H86.3475V401.952H89.6268V388.72L86.5018 391.004L85.9617 389.945L89.8197 387.025H90.8613V401.952Z" fill="url(#paint32_linear_175_198)" fill-opacity="0.6"/>
<path d="M89.7039 413.697C91.08 413.697 92.1216 414.412 92.8289 415.84C93.549 417.253 93.9091 419.309 93.9091 422.009C93.9091 424.708 93.549 426.772 92.8289 428.201C92.1216 429.629 91.08 430.343 89.7039 430.343C88.3408 430.343 87.2992 429.629 86.579 428.201C85.8588 426.772 85.4988 424.708 85.4988 422.009C85.4988 419.325 85.8588 417.268 86.579 415.84C87.2992 414.412 88.3408 413.697 89.7039 413.697ZM86.8683 422.009C86.8683 423.923 87.0098 425.422 87.2927 426.506L91.5751 416.075C91.125 415.338 90.5013 414.969 89.7039 414.969C88.8166 414.969 88.1222 415.55 87.6207 416.711C87.1191 417.857 86.8683 419.623 86.8683 422.009ZM89.7039 429.048C90.6041 429.048 91.305 428.475 91.8065 427.33C92.3081 426.168 92.5588 424.394 92.5588 422.009C92.5588 419.984 92.3981 418.414 92.0766 417.3L87.7943 427.824C88.2572 428.64 88.8938 429.048 89.7039 429.048Z" fill="url(#paint33_linear_175_198)" fill-opacity="0.6"/>
<path d="M90.8613 455.768H93.6969V457.015H86.3475V455.768H89.6268V442.536L86.5018 444.82L85.9617 443.76L89.8197 440.841H90.8613V455.768Z" fill="url(#paint34_linear_175_198)" fill-opacity="0.6"/>
<path d="M90.8613 482.675H93.6969V483.923H86.3475V482.675H89.6268V469.443L86.5018 471.727L85.9617 470.668L89.8197 467.748H90.8613V482.675Z" fill="url(#paint35_linear_175_198)" fill-opacity="0.6"/>
<path d="M89.7039 494.421C91.08 494.421 92.1216 495.135 92.8289 496.563C93.549 497.976 93.9091 500.032 93.9091 502.732C93.9091 505.431 93.549 507.495 92.8289 508.924C92.1216 510.352 91.08 511.066 89.7039 511.066C88.3408 511.066 87.2992 510.352 86.579 508.924C85.8588 507.495 85.4988 505.431 85.4988 502.732C85.4988 500.048 85.8588 497.991 86.579 496.563C87.2992 495.135 88.3408 494.421 89.7039 494.421ZM86.8683 502.732C86.8683 504.647 87.0098 506.146 87.2927 507.229L91.5751 496.798C91.125 496.061 90.5013 495.692 89.7039 495.692C88.8166 495.692 88.1222 496.273 87.6207 497.434C87.1191 498.58 86.8683 500.346 86.8683 502.732ZM89.7039 509.771C90.6041 509.771 91.305 509.198 91.8065 508.053C92.3081 506.891 92.5588 505.117 92.5588 502.732C92.5588 500.707 92.3981 499.137 92.0766 498.023L87.7943 508.547C88.2572 509.363 88.8938 509.771 89.7039 509.771Z" fill="url(#paint36_linear_175_198)" fill-opacity="0.6"/>
<path d="M90.8613 536.491H93.6969V537.739H86.3475V536.491H89.6268V523.259L86.5018 525.543L85.9617 524.483L89.8197 521.564H90.8613V536.491Z" fill="url(#paint37_linear_175_198)" fill-opacity="0.6"/>
<path d="M90.8613 563.398H93.6969V564.646H86.3475V563.398H89.6268V550.167L86.5018 552.45L85.9617 551.391L89.8197 548.471H90.8613V563.398Z" fill="url(#paint38_linear_175_198)" fill-opacity="0.6"/>
<path d="M89.7039 575.144C91.08 575.144 92.1216 575.858 92.8289 577.286C93.549 578.699 93.9091 580.755 93.9091 583.455C93.9091 586.154 93.549 588.218 92.8289 589.647C92.1216 591.075 91.08 591.789 89.7039 591.789C88.3408 591.789 87.2992 591.075 86.579 589.647C85.8588 588.218 85.4988 586.154 85.4988 583.455C85.4988 580.771 85.8588 578.714 86.579 577.286C87.2992 575.858 88.3408 575.144 89.7039 575.144ZM86.8683 583.455C86.8683 585.37 87.0098 586.869 87.2927 587.952L91.5751 577.522C91.125 576.784 90.5013 576.415 89.7039 576.415C88.8166 576.415 88.1222 576.996 87.6207 578.157C87.1191 579.303 86.8683 581.069 86.8683 583.455ZM89.7039 590.494C90.6041 590.494 91.305 589.921 91.8065 588.776C92.3081 587.614 92.5588 585.841 92.5588 583.455C92.5588 581.43 92.3981 579.86 92.0766 578.746L87.7943 589.27C88.2572 590.086 88.8938 590.494 89.7039 590.494Z" fill="url(#paint39_linear_175_198)" fill-opacity="0.6"/>
<path d="M90.8613 617.214H93.6969V618.462H86.3475V617.214H89.6268V603.982L86.5018 606.266L85.9617 605.206L89.8197 602.287H90.8613V617.214Z" fill="url(#paint40_linear_175_198)" fill-opacity="0.6"/>
<path d="M89.7039 628.959C91.08 628.959 92.1216 629.673 92.8289 631.101C93.549 632.514 93.9091 634.57 93.9091 637.27C93.9091 639.97 93.549 642.034 92.8289 643.462C92.1216 644.891 91.08 645.605 89.7039 645.605C88.3408 645.605 87.2992 644.891 86.579 643.462C85.8588 642.034 85.4988 639.97 85.4988 637.27C85.4988 634.586 85.8588 632.53 86.579 631.101C87.2992 629.673 88.3408 628.959 89.7039 628.959ZM86.8683 637.27C86.8683 639.185 87.0098 640.684 87.2927 641.767L91.5751 631.337C91.125 630.599 90.5013 630.23 89.7039 630.23C88.8166 630.23 88.1222 630.811 87.6207 631.973C87.1191 633.118 86.8683 634.884 86.8683 637.27ZM89.7039 644.31C90.6041 644.31 91.305 643.737 91.8065 642.591C92.3081 641.43 92.5588 639.656 92.5588 637.27C92.5588 635.245 92.3981 633.676 92.0766 632.561L87.7943 643.085C88.2572 643.902 88.8938 644.31 89.7039 644.31Z" fill="url(#paint41_linear_175_198)" fill-opacity="0.6"/>
<path d="M125.528 386.79C126.904 386.79 127.946 387.504 128.653 388.932C129.373 390.345 129.733 392.401 129.733 395.101C129.733 397.801 129.373 399.865 128.653 401.293C127.946 402.721 126.904 403.436 125.528 403.436C124.165 403.436 123.123 402.721 122.403 401.293C121.683 399.865 121.323 397.801 121.323 395.101C121.323 392.417 121.683 390.361 122.403 388.932C123.123 387.504 124.165 386.79 125.528 386.79ZM122.692 395.101C122.692 397.016 122.834 398.515 123.117 399.598L127.399 389.168C126.949 388.43 126.325 388.061 125.528 388.061C124.641 388.061 123.946 388.642 123.445 389.803C122.943 390.949 122.692 392.715 122.692 395.101ZM125.528 402.141C126.428 402.141 127.129 401.568 127.63 400.422C128.132 399.26 128.383 397.487 128.383 395.101C128.383 393.076 128.222 391.506 127.9 390.392L123.618 400.916C124.081 401.732 124.718 402.141 125.528 402.141Z" fill="url(#paint42_linear_175_198)" fill-opacity="0.6"/>
<path d="M126.685 428.86H129.521V430.108H122.171V428.86H125.451V415.628L122.326 417.912L121.786 416.852L125.644 413.933H126.685V428.86Z" fill="url(#paint43_linear_175_198)" fill-opacity="0.6"/>
<path d="M126.685 455.768H129.521V457.015H122.171V455.768H125.451V442.536L122.326 444.82L121.786 443.76L125.644 440.841H126.685V455.768Z" fill="url(#paint44_linear_175_198)" fill-opacity="0.6"/>
<path d="M125.528 467.513C126.904 467.513 127.946 468.227 128.653 469.655C129.373 471.068 129.733 473.124 129.733 475.824C129.733 478.524 129.373 480.588 128.653 482.016C127.946 483.444 126.904 484.159 125.528 484.159C124.165 484.159 123.123 483.444 122.403 482.016C121.683 480.588 121.323 478.524 121.323 475.824C121.323 473.14 121.683 471.084 122.403 469.655C123.123 468.227 124.165 467.513 125.528 467.513ZM122.692 475.824C122.692 477.739 122.834 479.238 123.117 480.321L127.399 469.891C126.949 469.153 126.325 468.784 125.528 468.784C124.641 468.784 123.946 469.365 123.445 470.526C122.943 471.672 122.692 473.438 122.692 475.824ZM125.528 482.864C126.428 482.864 127.129 482.291 127.63 481.145C128.132 479.983 128.383 478.21 128.383 475.824C128.383 473.799 128.222 472.23 127.9 471.115L123.618 481.639C124.081 482.456 124.718 482.864 125.528 482.864Z" fill="url(#paint45_linear_175_198)" fill-opacity="0.6"/>
<path d="M125.528 494.421C126.904 494.421 127.946 495.135 128.653 496.563C129.373 497.976 129.733 500.032 129.733 502.732C129.733 505.431 129.373 507.495 128.653 508.924C127.946 510.352 126.904 511.066 125.528 511.066C124.165 511.066 123.123 510.352 122.403 508.924C121.683 507.495 121.323 505.431 121.323 502.732C121.323 500.048 121.683 497.991 122.403 496.563C123.123 495.135 124.165 494.421 125.528 494.421ZM122.692 502.732C122.692 504.647 122.834 506.146 123.117 507.229L127.399 496.798C126.949 496.061 126.325 495.692 125.528 495.692C124.641 495.692 123.946 496.273 123.445 497.434C122.943 498.58 122.692 500.346 122.692 502.732ZM125.528 509.771C126.428 509.771 127.129 509.198 127.63 508.053C128.132 506.891 128.383 505.117 128.383 502.732C128.383 500.707 128.222 499.137 127.9 498.023L123.618 508.547C124.081 509.363 124.718 509.771 125.528 509.771Z" fill="url(#paint46_linear_175_198)" fill-opacity="0.6"/>
<g opacity="0.6">
<path d="M887.921 20.0107C889.233 20.0107 890.227 20.6961 890.902 22.0668C891.589 23.4225 891.932 25.3957 891.932 27.9865C891.932 30.5773 891.589 32.5581 890.902 33.9288C890.227 35.2995 889.233 35.9849 887.921 35.9849C886.62 35.9849 885.626 35.2995 884.939 33.9288C884.252 32.5581 883.909 30.5773 883.909 27.9865C883.909 25.4108 884.252 23.4375 884.939 22.0668C885.626 20.6961 886.62 20.0107 887.921 20.0107ZM885.215 27.9865C885.215 29.8242 885.35 31.2627 885.62 32.302L889.706 22.2927C889.276 21.5848 888.681 21.2308 887.921 21.2308C887.074 21.2308 886.412 21.7881 885.933 22.9028C885.455 24.0024 885.215 25.6969 885.215 27.9865ZM887.921 34.7422C888.779 34.7422 889.448 34.1924 889.926 33.0928C890.405 31.9782 890.644 30.2761 890.644 27.9865C890.644 26.0434 890.491 24.5371 890.184 23.4676L886.099 33.5673C886.54 34.3506 887.148 34.7422 887.921 34.7422Z" fill="url(#paint47_linear_175_198)"/>
<path d="M889.025 60.3835H891.73V61.581H884.718V60.3835H887.847V47.6855L884.866 49.8772L884.35 48.8604L888.031 46.0587H889.025V60.3835Z" fill="url(#paint48_linear_175_198)"/>
<path d="M887.921 71.6549C889.233 71.6549 890.227 72.3402 890.902 73.7109C891.589 75.0666 891.932 77.0398 891.932 79.6306C891.932 82.2215 891.589 84.2022 890.902 85.573C890.227 86.9437 889.233 87.629 887.921 87.629C886.62 87.629 885.626 86.9437 884.939 85.573C884.252 84.2022 883.909 82.2215 883.909 79.6306C883.909 77.0549 884.252 75.0817 884.939 73.7109C885.626 72.3402 886.62 71.6549 887.921 71.6549ZM885.215 79.6306C885.215 81.4683 885.35 82.9068 885.62 83.9462L889.706 73.9369C889.276 73.2289 888.681 72.8749 887.921 72.8749C887.074 72.8749 886.412 73.4323 885.933 74.5469C885.455 75.6465 885.215 77.3411 885.215 79.6306ZM887.921 86.3863C888.779 86.3863 889.448 85.8365 889.926 84.737C890.405 83.6223 890.644 81.9202 890.644 79.6306C890.644 77.6875 890.491 76.1812 890.184 75.1118L886.099 85.2114C886.54 85.9947 887.148 86.3863 887.921 86.3863Z" fill="url(#paint49_linear_175_198)"/>
<path d="M889.025 112.028H891.73V113.225H884.718V112.028H887.847V99.3297L884.866 101.521L884.35 100.505L888.031 97.7029H889.025V112.028Z" fill="url(#paint50_linear_175_198)"/>
<path d="M889.025 137.85H891.73V139.047H884.718V137.85H887.847V125.152L884.866 127.343L884.35 126.327L888.031 123.525H889.025V137.85Z" fill="url(#paint51_linear_175_198)"/>
<path d="M887.921 149.121C889.233 149.121 890.227 149.806 890.902 151.177C891.589 152.533 891.932 154.506 891.932 157.097C891.932 159.688 891.589 161.668 890.902 163.039C890.227 164.41 889.233 165.095 887.921 165.095C886.62 165.095 885.626 164.41 884.939 163.039C884.252 161.668 883.909 159.688 883.909 157.097C883.909 154.521 884.252 152.548 884.939 151.177C885.626 149.806 886.62 149.121 887.921 149.121ZM885.215 157.097C885.215 158.935 885.35 160.373 885.62 161.412L889.706 151.403C889.276 150.695 888.681 150.341 887.921 150.341C887.074 150.341 886.412 150.898 885.933 152.013C885.455 153.113 885.215 154.807 885.215 157.097ZM887.921 163.853C888.779 163.853 889.448 163.303 889.926 162.203C890.405 161.089 890.644 159.386 890.644 157.097C890.644 155.154 890.491 153.647 890.184 152.578L886.099 162.678C886.54 163.461 887.148 163.853 887.921 163.853Z" fill="url(#paint52_linear_175_198)"/>
<path d="M889.025 189.494H891.73V190.691H884.718V189.494H887.847V176.796L884.866 178.988L884.35 177.971L888.031 175.169H889.025V189.494Z" fill="url(#paint53_linear_175_198)"/>
<path d="M887.921 200.765C889.233 200.765 890.227 201.451 890.902 202.821C891.589 204.177 891.932 206.15 891.932 208.741C891.932 211.332 891.589 213.313 890.902 214.683C890.227 216.054 889.233 216.739 887.921 216.739C886.62 216.739 885.626 216.054 884.939 214.683C884.252 213.313 883.909 211.332 883.909 208.741C883.909 206.165 884.252 204.192 884.939 202.821C885.626 201.451 886.62 200.765 887.921 200.765ZM885.215 208.741C885.215 210.579 885.35 212.017 885.62 213.057L889.706 203.047C889.276 202.339 888.681 201.985 887.921 201.985C887.074 201.985 886.412 202.543 885.933 203.657C885.455 204.757 885.215 206.451 885.215 208.741ZM887.921 215.497C888.779 215.497 889.448 214.947 889.926 213.847C890.405 212.733 890.644 211.031 890.644 208.741C890.644 206.798 890.491 205.292 890.184 204.222L886.099 214.322C886.54 215.105 887.148 215.497 887.921 215.497Z" fill="url(#paint54_linear_175_198)"/>
<path d="M887.921 226.587C889.233 226.587 890.227 227.273 890.902 228.643C891.589 229.999 891.932 231.972 891.932 234.563C891.932 237.154 891.589 239.135 890.902 240.505C890.227 241.876 889.233 242.561 887.921 242.561C886.62 242.561 885.626 241.876 884.939 240.505C884.252 239.135 883.909 237.154 883.909 234.563C883.909 231.987 884.252 230.014 884.939 228.643C885.626 227.273 886.62 226.587 887.921 226.587ZM885.215 234.563C885.215 236.401 885.35 237.839 885.62 238.879L889.706 228.869C889.276 228.161 888.681 227.807 887.921 227.807C887.074 227.807 886.412 228.365 885.933 229.479C885.455 230.579 885.215 232.274 885.215 234.563ZM887.921 241.319C888.779 241.319 889.448 240.769 889.926 239.669C890.405 238.555 890.644 236.853 890.644 234.563C890.644 232.62 890.491 231.114 890.184 230.044L886.099 240.144C886.54 240.927 887.148 241.319 887.921 241.319Z" fill="url(#paint55_linear_175_198)"/>
<path d="M889.025 266.96H891.73V268.158H884.718V266.96H887.847V254.262L884.866 256.454L884.35 255.437L888.031 252.635H889.025V266.96Z" fill="url(#paint56_linear_175_198)"/>
<path d="M887.921 278.231C889.233 278.231 890.227 278.917 890.902 280.288C891.589 281.643 891.932 283.616 891.932 286.207C891.932 288.798 891.589 290.779 890.902 292.15C890.227 293.52 889.233 294.206 887.921 294.206C886.62 294.206 885.626 293.52 884.939 292.15C884.252 290.779 883.909 288.798 883.909 286.207C883.909 283.631 884.252 281.658 884.939 280.288C885.626 278.917 886.62 278.231 887.921 278.231ZM885.215 286.207C885.215 288.045 885.35 289.483 885.62 290.523L889.706 280.513C889.276 279.805 888.681 279.452 887.921 279.452C887.074 279.452 886.412 280.009 885.933 281.124C885.455 282.223 885.215 283.918 885.215 286.207ZM887.921 292.963C888.779 292.963 889.448 292.413 889.926 291.314C890.405 290.199 890.644 288.497 890.644 286.207C890.644 284.264 890.491 282.758 890.184 281.688L886.099 291.788C886.54 292.571 887.148 292.963 887.921 292.963Z" fill="url(#paint57_linear_175_198)"/>
<path d="M889.025 318.604H891.73V319.802H884.718V318.604H887.847V305.906L884.866 308.098L884.35 307.081L888.031 304.279H889.025V318.604Z" fill="url(#paint58_linear_175_198)"/>
<path d="M889.025 344.426H891.73V345.624H884.718V344.426H887.847V331.728L884.866 333.92L884.35 332.903L888.031 330.102H889.025V344.426Z" fill="url(#paint59_linear_175_198)"/>
<path d="M922.097 71.6549C923.41 71.6549 924.404 72.3402 925.079 73.7109C925.766 75.0666 926.109 77.0398 926.109 79.6306C926.109 82.2215 925.766 84.2022 925.079 85.573C924.404 86.9437 923.41 87.629 922.097 87.629C920.797 87.629 919.803 86.9437 919.116 85.573C918.429 84.2022 918.086 82.2215 918.086 79.6306C918.086 77.0549 918.429 75.0817 919.116 73.7109C919.803 72.3402 920.797 71.6549 922.097 71.6549ZM919.392 79.6306C919.392 81.4683 919.527 82.9068 919.797 83.9462L923.882 73.9369C923.453 73.2289 922.858 72.8749 922.097 72.8749C921.251 72.8749 920.588 73.4323 920.11 74.5469C919.631 75.6465 919.392 77.3411 919.392 79.6306ZM922.097 86.3863C922.956 86.3863 923.625 85.8365 924.103 84.737C924.582 83.6223 924.821 81.9202 924.821 79.6306C924.821 77.6875 924.668 76.1812 924.361 75.1118L920.275 85.2114C920.717 85.9947 921.324 86.3863 922.097 86.3863Z" fill="url(#paint60_linear_175_198)"/>
<path d="M923.202 112.028H925.907V113.225H918.895V112.028H922.024V99.3297L919.043 101.521L918.527 100.505L922.208 97.7029H923.202V112.028Z" fill="url(#paint61_linear_175_198)"/>
<path d="M922.097 123.299C923.41 123.299 924.404 123.984 925.079 125.355C925.766 126.711 926.109 128.684 926.109 131.275C926.109 133.866 925.766 135.846 925.079 137.217C924.404 138.588 923.41 139.273 922.097 139.273C920.797 139.273 919.803 138.588 919.116 137.217C918.429 135.846 918.086 133.866 918.086 131.275C918.086 128.699 918.429 126.726 919.116 125.355C919.803 123.984 920.797 123.299 922.097 123.299ZM919.392 131.275C919.392 133.112 919.527 134.551 919.797 135.59L923.882 125.581C923.453 124.873 922.858 124.519 922.097 124.519C921.251 124.519 920.588 125.076 920.11 126.191C919.631 127.291 919.392 128.985 919.392 131.275ZM922.097 138.03C922.956 138.03 923.625 137.481 924.103 136.381C924.582 135.266 924.821 133.564 924.821 131.275C924.821 129.332 924.668 127.825 924.361 126.756L920.275 136.856C920.717 137.639 921.324 138.03 922.097 138.03Z" fill="url(#paint62_linear_175_198)"/>
<path d="M922.097 149.121C923.41 149.121 924.404 149.806 925.079 151.177C925.766 152.533 926.109 154.506 926.109 157.097C926.109 159.688 925.766 161.668 925.079 163.039C924.404 164.41 923.41 165.095 922.097 165.095C920.797 165.095 919.803 164.41 919.116 163.039C918.429 161.668 918.086 159.688 918.086 157.097C918.086 154.521 918.429 152.548 919.116 151.177C919.803 149.806 920.797 149.121 922.097 149.121ZM919.392 157.097C919.392 158.935 919.527 160.373 919.797 161.412L923.882 151.403C923.453 150.695 922.858 150.341 922.097 150.341C921.251 150.341 920.588 150.898 920.11 152.013C919.631 153.113 919.392 154.807 919.392 157.097ZM922.097 163.853C922.956 163.853 923.625 163.303 924.103 162.203C924.582 161.089 924.821 159.386 924.821 157.097C924.821 155.154 924.668 153.647 924.361 152.578L920.275 162.678C920.717 163.461 921.324 163.853 922.097 163.853Z" fill="url(#paint63_linear_175_198)"/>
<path d="M923.202 189.494H925.907V190.691H918.895V189.494H922.024V176.796L919.043 178.988L918.527 177.971L922.208 175.169H923.202V189.494Z" fill="url(#paint64_linear_175_198)"/>
<path d="M922.097 200.765C923.41 200.765 924.404 201.451 925.079 202.821C925.766 204.177 926.109 206.15 926.109 208.741C926.109 211.332 925.766 213.313 925.079 214.683C924.404 216.054 923.41 216.739 922.097 216.739C920.797 216.739 919.803 216.054 919.116 214.683C918.429 213.313 918.086 211.332 918.086 208.741C918.086 206.165 918.429 204.192 919.116 202.821C919.803 201.451 920.797 200.765 922.097 200.765ZM919.392 208.741C919.392 210.579 919.527 212.017 919.797 213.057L923.882 203.047C923.453 202.339 922.858 201.985 922.097 201.985C921.251 201.985 920.588 202.543 920.11 203.657C919.631 204.757 919.392 206.451 919.392 208.741ZM922.097 215.497C922.956 215.497 923.625 214.947 924.103 213.847C924.582 212.733 924.821 211.031 924.821 208.741C924.821 206.798 924.668 205.292 924.361 204.222L920.275 214.322C920.717 215.105 921.324 215.497 922.097 215.497Z" fill="url(#paint65_linear_175_198)"/>
<path d="M923.202 241.138H925.907V242.335H918.895V241.138H922.024V228.44L919.043 230.632L918.527 229.615L922.208 226.813H923.202V241.138Z" fill="url(#paint66_linear_175_198)"/>
<path d="M922.097 252.409C923.41 252.409 924.404 253.095 925.079 254.465C925.766 255.821 926.109 257.794 926.109 260.385C926.109 262.976 925.766 264.957 925.079 266.327C924.404 267.698 923.41 268.384 922.097 268.384C920.797 268.384 919.803 267.698 919.116 266.327C918.429 264.957 918.086 262.976 918.086 260.385C918.086 257.809 918.429 255.836 919.116 254.465C919.803 253.095 920.797 252.409 922.097 252.409ZM919.392 260.385C919.392 262.223 919.527 263.661 919.797 264.701L923.882 254.691C923.453 253.983 922.858 253.629 922.097 253.629C921.251 253.629 920.588 254.187 920.11 255.301C919.631 256.401 919.392 258.096 919.392 260.385ZM922.097 267.141C922.956 267.141 923.625 266.591 924.103 265.491C924.582 264.377 924.821 262.675 924.821 260.385C924.821 258.442 924.668 256.936 924.361 255.866L920.275 265.966C920.717 266.749 921.324 267.141 922.097 267.141Z" fill="url(#paint67_linear_175_198)"/>
<path d="M922.097 278.231C923.41 278.231 924.404 278.917 925.079 280.288C925.766 281.643 926.109 283.616 926.109 286.207C926.109 288.798 925.766 290.779 925.079 292.15C924.404 293.52 923.41 294.206 922.097 294.206C920.797 294.206 919.803 293.52 919.116 292.15C918.429 290.779 918.086 288.798 918.086 286.207C918.086 283.631 918.429 281.658 919.116 280.288C919.803 278.917 920.797 278.231 922.097 278.231ZM919.392 286.207C919.392 288.045 919.527 289.483 919.797 290.523L923.882 280.513C923.453 279.805 922.858 279.452 922.097 279.452C921.251 279.452 920.588 280.009 920.11 281.124C919.631 282.223 919.392 283.918 919.392 286.207ZM922.097 292.963C922.956 292.963 923.625 292.413 924.103 291.314C924.582 290.199 924.821 288.497 924.821 286.207C924.821 284.264 924.668 282.758 924.361 281.688L920.275 291.788C920.717 292.571 921.324 292.963 922.097 292.963Z" fill="url(#paint68_linear_175_198)"/>
<path d="M923.202 318.604H925.907V319.802H918.895V318.604H922.024V305.906L919.043 308.098L918.527 307.081L922.208 304.279H923.202V318.604Z" fill="url(#paint69_linear_175_198)"/>
<path d="M922.097 329.876C923.41 329.876 924.404 330.561 925.079 331.932C925.766 333.287 926.109 335.261 926.109 337.851C926.109 340.442 925.766 342.423 925.079 343.794C924.404 345.164 923.41 345.85 922.097 345.85C920.797 345.85 919.803 345.164 919.116 343.794C918.429 342.423 918.086 340.442 918.086 337.851C918.086 335.276 918.429 333.302 919.116 331.932C919.803 330.561 920.797 329.876 922.097 329.876ZM919.392 337.851C919.392 339.689 919.527 341.128 919.797 342.167L923.882 332.158C923.453 331.45 922.858 331.096 922.097 331.096C921.251 331.096 920.588 331.653 920.11 332.768C919.631 333.867 919.392 335.562 919.392 337.851ZM922.097 344.607C922.956 344.607 923.625 344.057 924.103 342.958C924.582 341.843 924.821 340.141 924.821 337.851C924.821 335.908 924.668 334.402 924.361 333.332L920.275 343.432C920.717 344.215 921.324 344.607 922.097 344.607Z" fill="url(#paint70_linear_175_198)"/>
<path d="M923.202 370.248H925.907V371.446H918.895V370.248H922.024V357.55L919.043 359.742L918.527 358.725L922.208 355.924H923.202V370.248Z" fill="url(#paint71_linear_175_198)"/>
<path d="M923.202 396.07H925.907V397.268H918.895V396.07H922.024V383.372L919.043 385.564L918.527 384.547L922.208 381.746H923.202V396.07Z" fill="url(#paint72_linear_175_198)"/>
<path d="M870.832 97.4769C872.145 97.4769 873.139 98.1623 873.813 99.533C874.5 100.889 874.844 102.862 874.844 105.453C874.844 108.044 874.5 110.024 873.813 111.395C873.139 112.766 872.145 113.451 870.832 113.451C869.532 113.451 868.538 112.766 867.851 111.395C867.164 110.024 866.82 108.044 866.82 105.453C866.82 102.877 867.164 100.904 867.851 99.533C868.538 98.1623 869.532 97.4769 870.832 97.4769ZM868.127 105.453C868.127 107.29 868.262 108.729 868.532 109.768L872.617 99.759C872.188 99.051 871.593 98.697 870.832 98.697C869.986 98.697 869.323 99.2543 868.845 100.369C868.366 101.469 868.127 103.163 868.127 105.453ZM870.832 112.208C871.691 112.208 872.36 111.659 872.838 110.559C873.317 109.444 873.556 107.742 873.556 105.453C873.556 103.51 873.402 102.003 873.096 100.934L869.01 111.034C869.452 111.817 870.059 112.208 870.832 112.208Z" fill="url(#paint73_linear_175_198)"/>
<path d="M870.832 123.299C872.145 123.299 873.139 123.984 873.813 125.355C874.5 126.711 874.844 128.684 874.844 131.275C874.844 133.866 874.5 135.846 873.813 137.217C873.139 138.588 872.145 139.273 870.832 139.273C869.532 139.273 868.538 138.588 867.851 137.217C867.164 135.846 866.82 133.866 866.82 131.275C866.82 128.699 867.164 126.726 867.851 125.355C868.538 123.984 869.532 123.299 870.832 123.299ZM868.127 131.275C868.127 133.112 868.262 134.551 868.532 135.59L872.617 125.581C872.188 124.873 871.593 124.519 870.832 124.519C869.986 124.519 869.323 125.076 868.845 126.191C868.366 127.291 868.127 128.985 868.127 131.275ZM870.832 138.03C871.691 138.03 872.36 137.481 872.838 136.381C873.317 135.266 873.556 133.564 873.556 131.275C873.556 129.332 873.402 127.825 873.096 126.756L869.01 136.856C869.452 137.639 870.059 138.03 870.832 138.03Z" fill="url(#paint74_linear_175_198)"/>
<path d="M871.936 163.672H874.642V164.869H867.63V163.672H870.759V150.974L867.777 153.165L867.262 152.149L870.943 149.347H871.936V163.672Z" fill="url(#paint75_linear_175_198)"/>
<path d="M870.832 174.943C872.145 174.943 873.139 175.629 873.813 176.999C874.5 178.355 874.844 180.328 874.844 182.919C874.844 185.51 874.5 187.491 873.813 188.861C873.139 190.232 872.145 190.917 870.832 190.917C869.532 190.917 868.538 190.232 867.851 188.861C867.164 187.491 866.82 185.51 866.82 182.919C866.82 180.343 867.164 178.37 867.851 176.999C868.538 175.629 869.532 174.943 870.832 174.943ZM868.127 182.919C868.127 184.757 868.262 186.195 868.532 187.234L872.617 177.225C872.188 176.517 871.593 176.163 870.832 176.163C869.986 176.163 869.323 176.721 868.845 177.835C868.366 178.935 868.127 180.629 868.127 182.919ZM870.832 189.675C871.691 189.675 872.36 189.125 872.838 188.025C873.317 186.911 873.556 185.208 873.556 182.919C873.556 180.976 873.402 179.47 873.096 178.4L869.01 188.5C869.452 189.283 870.059 189.675 870.832 189.675Z" fill="url(#paint76_linear_175_198)"/>
<path d="M871.936 215.316H874.642V216.513H867.63V215.316H870.759V202.618L867.777 204.81L867.262 203.793L870.943 200.991H871.936V215.316Z" fill="url(#paint77_linear_175_198)"/>
<path d="M871.936 241.138H874.642V242.335H867.63V241.138H870.759V228.44L867.777 230.632L867.262 229.615L870.943 226.813H871.936V241.138Z" fill="url(#paint78_linear_175_198)"/>
<path d="M906.113 60.3835H908.818V61.581H901.807V60.3835H904.935V47.6855L901.954 49.8772L901.439 48.8604L905.119 46.0587H906.113V60.3835Z" fill="url(#paint79_linear_175_198)"/>
<path d="M905.009 71.6549C906.322 71.6549 907.315 72.3402 907.99 73.7109C908.677 75.0666 909.021 77.0398 909.021 79.6306C909.021 82.2215 908.677 84.2022 907.99 85.573C907.315 86.9437 906.322 87.629 905.009 87.629C903.709 87.629 902.715 86.9437 902.028 85.573C901.341 84.2022 900.997 82.2215 900.997 79.6306C900.997 77.0549 901.341 75.0817 902.028 73.7109C902.715 72.3402 903.709 71.6549 905.009 71.6549ZM902.304 79.6306C902.304 81.4683 902.439 82.9068 902.709 83.9462L906.794 73.9369C906.365 73.2289 905.77 72.8749 905.009 72.8749C904.162 72.8749 903.5 73.4323 903.021 74.5469C902.543 75.6465 902.304 77.3411 902.304 79.6306ZM905.009 86.3863C905.868 86.3863 906.536 85.8365 907.015 84.737C907.493 83.6223 907.733 81.9202 907.733 79.6306C907.733 77.6875 907.579 76.1812 907.273 75.1118L903.187 85.2114C903.629 85.9947 904.236 86.3863 905.009 86.3863Z" fill="url(#paint80_linear_175_198)"/>
<path d="M906.113 112.028H908.818V113.225H901.807V112.028H904.935V99.3297L901.954 101.521L901.439 100.505L905.119 97.7029H906.113V112.028Z" fill="url(#paint81_linear_175_198)"/>
<path d="M906.113 137.85H908.818V139.047H901.807V137.85H904.935V125.152L901.954 127.343L901.439 126.327L905.119 123.525H906.113V137.85Z" fill="url(#paint82_linear_175_198)"/>
<path d="M905.009 149.121C906.322 149.121 907.315 149.806 907.99 151.177C908.677 152.533 909.021 154.506 909.021 157.097C909.021 159.688 908.677 161.668 907.99 163.039C907.315 164.41 906.322 165.095 905.009 165.095C903.709 165.095 902.715 164.41 902.028 163.039C901.341 161.668 900.997 159.688 900.997 157.097C900.997 154.521 901.341 152.548 902.028 151.177C902.715 149.806 903.709 149.121 905.009 149.121ZM902.304 157.097C902.304 158.935 902.439 160.373 902.709 161.412L906.794 151.403C906.365 150.695 905.77 150.341 905.009 150.341C904.162 150.341 903.5 150.898 903.021 152.013C902.543 153.113 902.304 154.807 902.304 157.097ZM905.009 163.853C905.868 163.853 906.536 163.303 907.015 162.203C907.493 161.089 907.733 159.386 907.733 157.097C907.733 155.154 907.579 153.647 907.273 152.578L903.187 162.678C903.629 163.461 904.236 163.853 905.009 163.853Z" fill="url(#paint83_linear_175_198)"/>
<path d="M906.113 189.494H908.818V190.691H901.807V189.494H904.935V176.796L901.954 178.988L901.439 177.971L905.119 175.169H906.113V189.494Z" fill="url(#paint84_linear_175_198)"/>
<path d="M906.113 215.316H908.818V216.513H901.807V215.316H904.935V202.618L901.954 204.81L901.439 203.793L905.119 200.991H906.113V215.316Z" fill="url(#paint85_linear_175_198)"/>
<path d="M905.009 226.587C906.322 226.587 907.315 227.273 907.99 228.643C908.677 229.999 909.021 231.972 909.021 234.563C909.021 237.154 908.677 239.135 907.99 240.505C907.315 241.876 906.322 242.561 905.009 242.561C903.709 242.561 902.715 241.876 902.028 240.505C901.341 239.135 900.997 237.154 900.997 234.563C900.997 231.987 901.341 230.014 902.028 228.643C902.715 227.273 903.709 226.587 905.009 226.587ZM902.304 234.563C902.304 236.401 902.439 237.839 902.709 238.879L906.794 228.869C906.365 228.161 905.77 227.807 905.009 227.807C904.162 227.807 903.5 228.365 903.021 229.479C902.543 230.579 902.304 232.274 902.304 234.563ZM905.009 241.319C905.868 241.319 906.536 240.769 907.015 239.669C907.493 238.555 907.733 236.853 907.733 234.563C907.733 232.62 907.579 231.114 907.273 230.044L903.187 240.144C903.629 240.927 904.236 241.319 905.009 241.319Z" fill="url(#paint86_linear_175_198)"/>
<path d="M906.113 266.96H908.818V268.158H901.807V266.96H904.935V254.262L901.954 256.454L901.439 255.437L905.119 252.635H906.113V266.96Z" fill="url(#paint87_linear_175_198)"/>
<path d="M905.009 278.231C906.322 278.231 907.315 278.917 907.99 280.288C908.677 281.643 909.021 283.616 909.021 286.207C909.021 288.798 908.677 290.779 907.99 292.15C907.315 293.52 906.322 294.206 905.009 294.206C903.709 294.206 902.715 293.52 902.028 292.15C901.341 290.779 900.997 288.798 900.997 286.207C900.997 283.631 901.341 281.658 902.028 280.288C902.715 278.917 903.709 278.231 905.009 278.231ZM902.304 286.207C902.304 288.045 902.439 289.483 902.709 290.523L906.794 280.513C906.365 279.805 905.77 279.452 905.009 279.452C904.162 279.452 903.5 280.009 903.021 281.124C902.543 282.223 902.304 283.918 902.304 286.207ZM905.009 292.963C905.868 292.963 906.536 292.413 907.015 291.314C907.493 290.199 907.733 288.497 907.733 286.207C907.733 284.264 907.579 282.758 907.273 281.688L903.187 291.788C903.629 292.571 904.236 292.963 905.009 292.963Z" fill="url(#paint88_linear_175_198)"/>
<path d="M939.186 45.8328C940.499 45.8328 941.492 46.5181 942.167 47.8889C942.854 49.2445 943.198 51.2178 943.198 53.8086C943.198 56.3994 942.854 58.3802 942.167 59.7509C941.492 61.1216 940.499 61.807 939.186 61.807C937.885 61.807 936.892 61.1216 936.205 59.7509C935.517 58.3802 935.174 56.3994 935.174 53.8086C935.174 51.2328 935.517 49.2596 936.205 47.8889C936.892 46.5181 937.885 45.8328 939.186 45.8328ZM936.481 53.8086C936.481 55.6462 936.616 57.0848 936.885 58.1241L940.971 48.1148C940.541 47.4069 939.946 47.0529 939.186 47.0529C938.339 47.0529 937.677 47.6102 937.198 48.7249C936.72 49.8244 936.481 51.519 936.481 53.8086ZM939.186 60.5643C940.045 60.5643 940.713 60.0145 941.192 58.9149C941.67 57.8002 941.909 56.0981 941.909 53.8086C941.909 51.8655 941.756 50.3592 941.449 49.2897L937.364 59.3894C937.806 60.1726 938.413 60.5643 939.186 60.5643Z" fill="url(#paint89_linear_175_198)"/>
<path d="M940.29 86.2056H942.995V87.4031H935.984V86.2056H939.112V73.5076L936.131 75.6992L935.616 74.6825L939.296 71.8808H940.29V86.2056Z" fill="url(#paint90_linear_175_198)"/>
<path d="M940.29 112.028H942.995V113.225H935.984V112.028H939.112V99.3297L936.131 101.521L935.616 100.505L939.296 97.7029H940.29V112.028Z" fill="url(#paint91_linear_175_198)"/>
<path d="M939.186 123.299C940.499 123.299 941.492 123.984 942.167 125.355C942.854 126.711 943.198 128.684 943.198 131.275C943.198 133.866 942.854 135.846 942.167 137.217C941.492 138.588 940.499 139.273 939.186 139.273C937.885 139.273 936.892 138.588 936.205 137.217C935.517 135.846 935.174 133.866 935.174 131.275C935.174 128.699 935.517 126.726 936.205 125.355C936.892 123.984 937.885 123.299 939.186 123.299ZM936.481 131.275C936.481 133.112 936.616 134.551 936.885 135.59L940.971 125.581C940.541 124.873 939.946 124.519 939.186 124.519C938.339 124.519 937.677 125.076 937.198 126.191C936.72 127.291 936.481 128.985 936.481 131.275ZM939.186 138.03C940.045 138.03 940.713 137.481 941.192 136.381C941.67 135.266 941.909 133.564 941.909 131.275C941.909 129.332 941.756 127.825 941.449 126.756L937.364 136.856C937.806 137.639 938.413 138.03 939.186 138.03Z" fill="url(#paint92_linear_175_198)"/>
<path d="M939.186 149.121C940.499 149.121 941.492 149.806 942.167 151.177C942.854 152.533 943.198 154.506 943.198 157.097C943.198 159.688 942.854 161.668 942.167 163.039C941.492 164.41 940.499 165.095 939.186 165.095C937.885 165.095 936.892 164.41 936.205 163.039C935.517 161.668 935.174 159.688 935.174 157.097C935.174 154.521 935.517 152.548 936.205 151.177C936.892 149.806 937.885 149.121 939.186 149.121ZM936.481 157.097C936.481 158.935 936.616 160.373 936.885 161.412L940.971 151.403C940.541 150.695 939.946 150.341 939.186 150.341C938.339 150.341 937.677 150.898 937.198 152.013C936.72 153.113 936.481 154.807 936.481 157.097ZM939.186 163.853C940.045 163.853 940.713 163.303 941.192 162.203C941.67 161.089 941.909 159.386 941.909 157.097C941.909 155.154 941.756 153.647 941.449 152.578L937.364 162.678C937.806 163.461 938.413 163.853 939.186 163.853Z" fill="url(#paint93_linear_175_198)"/>
</g>
<defs>
<filter id="filter0_f_175_198" x="-504.19" y="-704.19" width="2034.38" height="1593.41" filterUnits="userSpaceOnUse" color-interpolation-filters="sRGB">
<feFlood flood-opacity="0" result="BackgroundImageFix"/>
<feBlend mode="normal" in="SourceGraphic" in2="BackgroundImageFix" result="shape"/>
<feGaussianBlur stdDeviation="200.095" result="effect1_foregroundBlur_175_198"/>
</filter>
<linearGradient id="paint0_linear_175_198" x1="89.7039" y1="359.882" x2="89.7039" y2="712.647" gradientUnits="userSpaceOnUse">
<stop stop-color="#F7DD43"/>
<stop offset="1" stop-color="#F7DD43" stop-opacity="0"/>
</linearGradient>
<linearGradient id="paint1_linear_175_198" x1="89.7039" y1="359.882" x2="89.7039" y2="712.647" gradientUnits="userSpaceOnUse">
<stop stop-color="#F7DD43"/>
<stop offset="1" stop-color="#F7DD43" stop-opacity="0"/>
</linearGradient>
<linearGradient id="paint2_linear_175_198" x1="89.7039" y1="359.882" x2="89.7039" y2="712.647" gradientUnits="userSpaceOnUse">
<stop stop-color="#F7DD43"/>
<stop offset="1" stop-color="#F7DD43" stop-opacity="0"/>
</linearGradient>
<linearGradient id="paint3_linear_175_198" x1="89.7039" y1="359.882" x2="89.7039" y2="712.647" gradientUnits="userSpaceOnUse">
<stop stop-color="#F7DD43"/>
<stop offset="1" stop-color="#F7DD43" stop-opacity="0"/>
</linearGradient>
<linearGradient id="paint4_linear_175_198" x1="89.7039" y1="359.882" x2="89.7039" y2="712.647" gradientUnits="userSpaceOnUse">
<stop stop-color="#F7DD43"/>
<stop offset="1" stop-color="#F7DD43" stop-opacity="0"/>
</linearGradient>
<linearGradient id="paint5_linear_175_198" x1="89.7039" y1="359.882" x2="89.7039" y2="712.647" gradientUnits="userSpaceOnUse">
<stop stop-color="#F7DD43"/>
<stop offset="1" stop-color="#F7DD43" stop-opacity="0"/>
</linearGradient>
<linearGradient id="paint6_linear_175_198" x1="89.7039" y1="359.882" x2="89.7039" y2="712.647" gradientUnits="userSpaceOnUse">
<stop stop-color="#F7DD43"/>
<stop offset="1" stop-color="#F7DD43" stop-opacity="0"/>
</linearGradient>
<linearGradient id="paint7_linear_175_198" x1="89.7039" y1="359.882" x2="89.7039" y2="712.647" gradientUnits="userSpaceOnUse">
<stop stop-color="#F7DD43"/>
<stop offset="1" stop-color="#F7DD43" stop-opacity="0"/>
</linearGradient>
<linearGradient id="paint8_linear_175_198" x1="89.7039" y1="359.882" x2="89.7039" y2="712.647" gradientUnits="userSpaceOnUse">
<stop stop-color="#F7DD43"/>
<stop offset="1" stop-color="#F7DD43" stop-opacity="0"/>
</linearGradient>
<linearGradient id="paint9_linear_175_198" x1="89.7039" y1="359.882" x2="89.7039" y2="712.647" gradientUnits="userSpaceOnUse">
<stop stop-color="#F7DD43"/>
<stop offset="1" stop-color="#F7DD43" stop-opacity="0"/>
</linearGradient>
<linearGradient id="paint10_linear_175_198" x1="89.7039" y1="359.882" x2="89.7039" y2="712.647" gradientUnits="userSpaceOnUse">
<stop stop-color="#F7DD43"/>
<stop offset="1" stop-color="#F7DD43" stop-opacity="0"/>
</linearGradient>
<linearGradient id="paint11_linear_175_198" x1="89.7039" y1="359.882" x2="89.7039" y2="712.647" gradientUnits="userSpaceOnUse">
<stop stop-color="#F7DD43"/>
<stop offset="1" stop-color="#F7DD43" stop-opacity="0"/>
</linearGradient>
<linearGradient id="paint12_linear_175_198" x1="89.7039" y1="359.882" x2="89.7039" y2="712.647" gradientUnits="userSpaceOnUse">
<stop stop-color="#F7DD43"/>
<stop offset="1" stop-color="#F7DD43" stop-opacity="0"/>
</linearGradient>
<linearGradient id="paint13_linear_175_198" x1="89.7039" y1="359.882" x2="89.7039" y2="712.647" gradientUnits="userSpaceOnUse">
<stop stop-color="#F7DD43"/>
<stop offset="1" stop-color="#F7DD43" stop-opacity="0"/>
</linearGradient>
<linearGradient id="paint14_linear_175_198" x1="89.7039" y1="359.882" x2="89.7039" y2="712.647" gradientUnits="userSpaceOnUse">
<stop stop-color="#F7DD43"/>
<stop offset="1" stop-color="#F7DD43" stop-opacity="0"/>
</linearGradient>
<linearGradient id="paint15_linear_175_198" x1="89.7039" y1="359.882" x2="89.7039" y2="712.647" gradientUnits="userSpaceOnUse">
<stop stop-color="#F7DD43"/>
<stop offset="1" stop-color="#F7DD43" stop-opacity="0"/>
</linearGradient>
<linearGradient id="paint16_linear_175_198" x1="89.7039" y1="359.882" x2="89.7039" y2="712.647" gradientUnits="userSpaceOnUse">
<stop stop-color="#F7DD43"/>
<stop offset="1" stop-color="#F7DD43" stop-opacity="0"/>
</linearGradient>
<linearGradient id="paint17_linear_175_198" x1="89.7039" y1="359.882" x2="89.7039" y2="712.647" gradientUnits="userSpaceOnUse">
<stop stop-color="#F7DD43"/>
<stop offset="1" stop-color="#F7DD43" stop-opacity="0"/>
</linearGradient>
<linearGradient id="paint18_linear_175_198" x1="89.7039" y1="359.882" x2="89.7039" y2="712.647" gradientUnits="userSpaceOnUse">
<stop stop-color="#F7DD43"/>
<stop offset="1" stop-color="#F7DD43" stop-opacity="0"/>
</linearGradient>
<linearGradient id="paint19_linear_175_198" x1="89.7039" y1="359.882" x2="89.7039" y2="712.647" gradientUnits="userSpaceOnUse">
<stop stop-color="#F7DD43"/>
<stop offset="1" stop-color="#F7DD43" stop-opacity="0"/>
</linearGradient>
<linearGradient id="paint20_linear_175_198" x1="89.7039" y1="359.882" x2="89.7039" y2="712.647" gradientUnits="userSpaceOnUse">
<stop stop-color="#F7DD43"/>
<stop offset="1" stop-color="#F7DD43" stop-opacity="0"/>
</linearGradient>
<linearGradient id="paint21_linear_175_198" x1="89.7039" y1="359.882" x2="89.7039" y2="712.647" gradientUnits="userSpaceOnUse">
<stop stop-color="#F7DD43"/>
<stop offset="1" stop-color="#F7DD43" stop-opacity="0"/>
</linearGradient>
<linearGradient id="paint22_linear_175_198" x1="89.7039" y1="359.882" x2="89.7039" y2="712.647" gradientUnits="userSpaceOnUse">
<stop stop-color="#F7DD43"/>
<stop offset="1" stop-color="#F7DD43" stop-opacity="0"/>
</linearGradient>
<linearGradient id="paint23_linear_175_198" x1="89.7039" y1="359.882" x2="89.7039" y2="712.647" gradientUnits="userSpaceOnUse">
<stop stop-color="#F7DD43"/>
<stop offset="1" stop-color="#F7DD43" stop-opacity="0"/>
</linearGradient>
<linearGradient id="paint24_linear_175_198" x1="89.7039" y1="359.882" x2="89.7039" y2="712.647" gradientUnits="userSpaceOnUse">
<stop stop-color="#F7DD43"/>
<stop offset="1" stop-color="#F7DD43" stop-opacity="0"/>
</linearGradient>
<linearGradient id="paint25_linear_175_198" x1="89.7039" y1="359.882" x2="89.7039" y2="712.647" gradientUnits="userSpaceOnUse">
<stop stop-color="#F7DD43"/>
<stop offset="1" stop-color="#F7DD43" stop-opacity="0"/>
</linearGradient>
<linearGradient id="paint26_linear_175_198" x1="89.7039" y1="359.882" x2="89.7039" y2="712.647" gradientUnits="userSpaceOnUse">
<stop stop-color="#F7DD43"/>
<stop offset="1" stop-color="#F7DD43" stop-opacity="0"/>
</linearGradient>
<linearGradient id="paint27_linear_175_198" x1="89.7039" y1="359.882" x2="89.7039" y2="712.647" gradientUnits="userSpaceOnUse">
<stop stop-color="#F7DD43"/>
<stop offset="1" stop-color="#F7DD43" stop-opacity="0"/>
</linearGradient>
<linearGradient id="paint28_linear_175_198" x1="89.7039" y1="359.882" x2="89.7039" y2="712.647" gradientUnits="userSpaceOnUse">
<stop stop-color="#F7DD43"/>
<stop offset="1" stop-color="#F7DD43" stop-opacity="0"/>
</linearGradient>
<linearGradient id="paint29_linear_175_198" x1="89.7039" y1="359.882" x2="89.7039" y2="712.647" gradientUnits="userSpaceOnUse">
<stop stop-color="#F7DD43"/>
<stop offset="1" stop-color="#F7DD43" stop-opacity="0"/>
</linearGradient>
<linearGradient id="paint30_linear_175_198" x1="89.7039" y1="359.882" x2="89.7039" y2="712.647" gradientUnits="userSpaceOnUse">
<stop stop-color="#F7DD43"/>
<stop offset="1" stop-color="#F7DD43" stop-opacity="0"/>
</linearGradient>
<linearGradient id="paint31_linear_175_198" x1="89.7039" y1="359.882" x2="89.7039" y2="712.647" gradientUnits="userSpaceOnUse">
<stop stop-color="#F7DD43"/>
<stop offset="1" stop-color="#F7DD43" stop-opacity="0"/>
</linearGradient>
<linearGradient id="paint32_linear_175_198" x1="89.7039" y1="359.882" x2="89.7039" y2="712.647" gradientUnits="userSpaceOnUse">
<stop stop-color="#F7DD43"/>
<stop offset="1" stop-color="#F7DD43" stop-opacity="0"/>
</linearGradient>
<linearGradient id="paint33_linear_175_198" x1="89.7039" y1="359.882" x2="89.7039" y2="712.647" gradientUnits="userSpaceOnUse">
<stop stop-color="#F7DD43"/>
<stop offset="1" stop-color="#F7DD43" stop-opacity="0"/>
</linearGradient>
<linearGradient id="paint34_linear_175_198" x1="89.7039" y1="359.882" x2="89.7039" y2="712.647" gradientUnits="userSpaceOnUse">
<stop stop-color="#F7DD43"/>
<stop offset="1" stop-color="#F7DD43" stop-opacity="0"/>
</linearGradient>
<linearGradient id="paint35_linear_175_198" x1="89.7039" y1="359.882" x2="89.7039" y2="712.647" gradientUnits="userSpaceOnUse">
<stop stop-color="#F7DD43"/>
<stop offset="1" stop-color="#F7DD43" stop-opacity="0"/>
</linearGradient>
<linearGradient id="paint36_linear_175_198" x1="89.7039" y1="359.882" x2="89.7039" y2="712.647" gradientUnits="userSpaceOnUse">
<stop stop-color="#F7DD43"/>
<stop offset="1" stop-color="#F7DD43" stop-opacity="0"/>
</linearGradient>
<linearGradient id="paint37_linear_175_198" x1="89.7039" y1="359.882" x2="89.7039" y2="712.647" gradientUnits="userSpaceOnUse">
<stop stop-color="#F7DD43"/>
<stop offset="1" stop-color="#F7DD43" stop-opacity="0"/>
</linearGradient>
<linearGradient id="paint38_linear_175_198" x1="89.7039" y1="359.882" x2="89.7039" y2="712.647" gradientUnits="userSpaceOnUse">
<stop stop-color="#F7DD43"/>
<stop offset="1" stop-color="#F7DD43" stop-opacity="0"/>
</linearGradient>
<linearGradient id="paint39_linear_175_198" x1="89.7039" y1="359.882" x2="89.7039" y2="712.647" gradientUnits="userSpaceOnUse">
<stop stop-color="#F7DD43"/>
<stop offset="1" stop-color="#F7DD43" stop-opacity="0"/>
</linearGradient>
<linearGradient id="paint40_linear_175_198" x1="89.7039" y1="359.882" x2="89.7039" y2="712.647" gradientUnits="userSpaceOnUse">
<stop stop-color="#F7DD43"/>
<stop offset="1" stop-color="#F7DD43" stop-opacity="0"/>
</linearGradient>
<linearGradient id="paint41_linear_175_198" x1="89.7039" y1="359.882" x2="89.7039" y2="712.647" gradientUnits="userSpaceOnUse">
<stop stop-color="#F7DD43"/>
<stop offset="1" stop-color="#F7DD43" stop-opacity="0"/>
</linearGradient>
<linearGradient id="paint42_linear_175_198" x1="89.7039" y1="359.882" x2="89.7039" y2="712.647" gradientUnits="userSpaceOnUse">
<stop stop-color="#F7DD43"/>
<stop offset="1" stop-color="#F7DD43" stop-opacity="0"/>
</linearGradient>
<linearGradient id="paint43_linear_175_198" x1="89.7039" y1="359.882" x2="89.7039" y2="712.647" gradientUnits="userSpaceOnUse">
<stop stop-color="#F7DD43"/>
<stop offset="1" stop-color="#F7DD43" stop-opacity="0"/>
</linearGradient>
<linearGradient id="paint44_linear_175_198" x1="89.7039" y1="359.882" x2="89.7039" y2="712.647" gradientUnits="userSpaceOnUse">
<stop stop-color="#F7DD43"/>
<stop offset="1" stop-color="#F7DD43" stop-opacity="0"/>
</linearGradient>
<linearGradient id="paint45_linear_175_198" x1="89.7039" y1="359.882" x2="89.7039" y2="712.647" gradientUnits="userSpaceOnUse">
<stop stop-color="#F7DD43"/>
<stop offset="1" stop-color="#F7DD43" stop-opacity="0"/>
</linearGradient>
<linearGradient id="paint46_linear_175_198" x1="89.7039" y1="359.882" x2="89.7039" y2="712.647" gradientUnits="userSpaceOnUse">
<stop stop-color="#F7DD43"/>
<stop offset="1" stop-color="#F7DD43" stop-opacity="0"/>
</linearGradient>
<linearGradient id="paint47_linear_175_198" x1="905.009" y1="20.0107" x2="905.009" y2="358.543" gradientUnits="userSpaceOnUse">
<stop stop-color="#F7DD43"/>
<stop offset="1" stop-color="#F7DD43" stop-opacity="0"/>
</linearGradient>
<linearGradient id="paint48_linear_175_198" x1="905.009" y1="20.0107" x2="905.009" y2="358.543" gradientUnits="userSpaceOnUse">
<stop stop-color="#F7DD43"/>
<stop offset="1" stop-color="#F7DD43" stop-opacity="0"/>
</linearGradient>
<linearGradient id="paint49_linear_175_198" x1="905.009" y1="20.0107" x2="905.009" y2="358.543" gradientUnits="userSpaceOnUse">
<stop stop-color="#F7DD43"/>
<stop offset="1" stop-color="#F7DD43" stop-opacity="0"/>
</linearGradient>
<linearGradient id="paint50_linear_175_198" x1="905.009" y1="20.0107" x2="905.009" y2="358.543" gradientUnits="userSpaceOnUse">
<stop stop-color="#F7DD43"/>
<stop offset="1" stop-color="#F7DD43" stop-opacity="0"/>
</linearGradient>
<linearGradient id="paint51_linear_175_198" x1="905.009" y1="20.0107" x2="905.009" y2="358.543" gradientUnits="userSpaceOnUse">
<stop stop-color="#F7DD43"/>
<stop offset="1" stop-color="#F7DD43" stop-opacity="0"/>
</linearGradient>
<linearGradient id="paint52_linear_175_198" x1="905.009" y1="20.0107" x2="905.009" y2="358.543" gradientUnits="userSpaceOnUse">
<stop stop-color="#F7DD43"/>
<stop offset="1" stop-color="#F7DD43" stop-opacity="0"/>
</linearGradient>
<linearGradient id="paint53_linear_175_198" x1="905.009" y1="20.0107" x2="905.009" y2="358.543" gradientUnits="userSpaceOnUse">
<stop stop-color="#F7DD43"/>
<stop offset="1" stop-color="#F7DD43" stop-opacity="0"/>
</linearGradient>
<linearGradient id="paint54_linear_175_198" x1="905.009" y1="20.0107" x2="905.009" y2="358.543" gradientUnits="userSpaceOnUse">
<stop stop-color="#F7DD43"/>
<stop offset="1" stop-color="#F7DD43" stop-opacity="0"/>
</linearGradient>
<linearGradient id="paint55_linear_175_198" x1="905.009" y1="20.0107" x2="905.009" y2="358.543" gradientUnits="userSpaceOnUse">
<stop stop-color="#F7DD43"/>
<stop offset="1" stop-color="#F7DD43" stop-opacity="0"/>
</linearGradient>
<linearGradient id="paint56_linear_175_198" x1="905.009" y1="20.0107" x2="905.009" y2="358.543" gradientUnits="userSpaceOnUse">
<stop stop-color="#F7DD43"/>
<stop offset="1" stop-color="#F7DD43" stop-opacity="0"/>
</linearGradient>
<linearGradient id="paint57_linear_175_198" x1="905.009" y1="20.0107" x2="905.009" y2="358.543" gradientUnits="userSpaceOnUse">
<stop stop-color="#F7DD43"/>
<stop offset="1" stop-color="#F7DD43" stop-opacity="0"/>
</linearGradient>
<linearGradient id="paint58_linear_175_198" x1="905.009" y1="20.0107" x2="905.009" y2="358.543" gradientUnits="userSpaceOnUse">
<stop stop-color="#F7DD43"/>
<stop offset="1" stop-color="#F7DD43" stop-opacity="0"/>
</linearGradient>
<linearGradient id="paint59_linear_175_198" x1="905.009" y1="20.0107" x2="905.009" y2="358.543" gradientUnits="userSpaceOnUse">
<stop stop-color="#F7DD43"/>
<stop offset="1" stop-color="#F7DD43" stop-opacity="0"/>
</linearGradient>
<linearGradient id="paint60_linear_175_198" x1="905.009" y1="20.0107" x2="905.009" y2="358.543" gradientUnits="userSpaceOnUse">
<stop stop-color="#F7DD43"/>
<stop offset="1" stop-color="#F7DD43" stop-opacity="0"/>
</linearGradient>
<linearGradient id="paint61_linear_175_198" x1="905.009" y1="20.0107" x2="905.009" y2="358.543" gradientUnits="userSpaceOnUse">
<stop stop-color="#F7DD43"/>
<stop offset="1" stop-color="#F7DD43" stop-opacity="0"/>
</linearGradient>
<linearGradient id="paint62_linear_175_198" x1="905.009" y1="20.0107" x2="905.009" y2="358.543" gradientUnits="userSpaceOnUse">
<stop stop-color="#F7DD43"/>
<stop offset="1" stop-color="#F7DD43" stop-opacity="0"/>
</linearGradient>
<linearGradient id="paint63_linear_175_198" x1="905.009" y1="20.0107" x2="905.009" y2="358.543" gradientUnits="userSpaceOnUse">
<stop stop-color="#F7DD43"/>
<stop offset="1" stop-color="#F7DD43" stop-opacity="0"/>
</linearGradient>
<linearGradient id="paint64_linear_175_198" x1="905.009" y1="20.0107" x2="905.009" y2="358.543" gradientUnits="userSpaceOnUse">
<stop stop-color="#F7DD43"/>
<stop offset="1" stop-color="#F7DD43" stop-opacity="0"/>
</linearGradient>
<linearGradient id="paint65_linear_175_198" x1="905.009" y1="20.0107" x2="905.009" y2="358.543" gradientUnits="userSpaceOnUse">
<stop stop-color="#F7DD43"/>
<stop offset="1" stop-color="#F7DD43" stop-opacity="0"/>
</linearGradient>
<linearGradient id="paint66_linear_175_198" x1="905.009" y1="20.0107" x2="905.009" y2="358.543" gradientUnits="userSpaceOnUse">
<stop stop-color="#F7DD43"/>
<stop offset="1" stop-color="#F7DD43" stop-opacity="0"/>
</linearGradient>
<linearGradient id="paint67_linear_175_198" x1="905.009" y1="20.0107" x2="905.009" y2="358.543" gradientUnits="userSpaceOnUse">
<stop stop-color="#F7DD43"/>
<stop offset="1" stop-color="#F7DD43" stop-opacity="0"/>
</linearGradient>
<linearGradient id="paint68_linear_175_198" x1="905.009" y1="20.0107" x2="905.009" y2="358.543" gradientUnits="userSpaceOnUse">
<stop stop-color="#F7DD43"/>
<stop offset="1" stop-color="#F7DD43" stop-opacity="0"/>
</linearGradient>
<linearGradient id="paint69_linear_175_198" x1="905.009" y1="20.0107" x2="905.009" y2="358.543" gradientUnits="userSpaceOnUse">
<stop stop-color="#F7DD43"/>
<stop offset="1" stop-color="#F7DD43" stop-opacity="0"/>
</linearGradient>
<linearGradient id="paint70_linear_175_198" x1="905.009" y1="20.0107" x2="905.009" y2="358.543" gradientUnits="userSpaceOnUse">
<stop stop-color="#F7DD43"/>
<stop offset="1" stop-color="#F7DD43" stop-opacity="0"/>
</linearGradient>
<linearGradient id="paint71_linear_175_198" x1="905.009" y1="20.0107" x2="905.009" y2="358.543" gradientUnits="userSpaceOnUse">
<stop stop-color="#F7DD43"/>
<stop offset="1" stop-color="#F7DD43" stop-opacity="0"/>
</linearGradient>
<linearGradient id="paint72_linear_175_198" x1="905.009" y1="20.0107" x2="905.009" y2="358.543" gradientUnits="userSpaceOnUse">
<stop stop-color="#F7DD43"/>
<stop offset="1" stop-color="#F7DD43" stop-opacity="0"/>
</linearGradient>
<linearGradient id="paint73_linear_175_198" x1="905.009" y1="20.0107" x2="905.009" y2="358.543" gradientUnits="userSpaceOnUse">
<stop stop-color="#F7DD43"/>
<stop offset="1" stop-color="#F7DD43" stop-opacity="0"/>
</linearGradient>
<linearGradient id="paint74_linear_175_198" x1="905.009" y1="20.0107" x2="905.009" y2="358.543" gradientUnits="userSpaceOnUse">
<stop stop-color="#F7DD43"/>
<stop offset="1" stop-color="#F7DD43" stop-opacity="0"/>
</linearGradient>
<linearGradient id="paint75_linear_175_198" x1="905.009" y1="20.0107" x2="905.009" y2="358.543" gradientUnits="userSpaceOnUse">
<stop stop-color="#F7DD43"/>
<stop offset="1" stop-color="#F7DD43" stop-opacity="0"/>
</linearGradient>
<linearGradient id="paint76_linear_175_198" x1="905.009" y1="20.0107" x2="905.009" y2="358.543" gradientUnits="userSpaceOnUse">
<stop stop-color="#F7DD43"/>
<stop offset="1" stop-color="#F7DD43" stop-opacity="0"/>
</linearGradient>
<linearGradient id="paint77_linear_175_198" x1="905.009" y1="20.0107" x2="905.009" y2="358.543" gradientUnits="userSpaceOnUse">
<stop stop-color="#F7DD43"/>
<stop offset="1" stop-color="#F7DD43" stop-opacity="0"/>
</linearGradient>
<linearGradient id="paint78_linear_175_198" x1="905.009" y1="20.0107" x2="905.009" y2="358.543" gradientUnits="userSpaceOnUse">
<stop stop-color="#F7DD43"/>
<stop offset="1" stop-color="#F7DD43" stop-opacity="0"/>
</linearGradient>
<linearGradient id="paint79_linear_175_198" x1="905.009" y1="20.0107" x2="905.009" y2="358.543" gradientUnits="userSpaceOnUse">
<stop stop-color="#F7DD43"/>
<stop offset="1" stop-color="#F7DD43" stop-opacity="0"/>
</linearGradient>
<linearGradient id="paint80_linear_175_198" x1="905.009" y1="20.0107" x2="905.009" y2="358.543" gradientUnits="userSpaceOnUse">
<stop stop-color="#F7DD43"/>
<stop offset="1" stop-color="#F7DD43" stop-opacity="0"/>
</linearGradient>
<linearGradient id="paint81_linear_175_198" x1="905.009" y1="20.0107" x2="905.009" y2="358.543" gradientUnits="userSpaceOnUse">
<stop stop-color="#F7DD43"/>
<stop offset="1" stop-color="#F7DD43" stop-opacity="0"/>
</linearGradient>
<linearGradient id="paint82_linear_175_198" x1="905.009" y1="20.0107" x2="905.009" y2="358.543" gradientUnits="userSpaceOnUse">
<stop stop-color="#F7DD43"/>
<stop offset="1" stop-color="#F7DD43" stop-opacity="0"/>
</linearGradient>
<linearGradient id="paint83_linear_175_198" x1="905.009" y1="20.0107" x2="905.009" y2="358.543" gradientUnits="userSpaceOnUse">
<stop stop-color="#F7DD43"/>
<stop offset="1" stop-color="#F7DD43" stop-opacity="0"/>
</linearGradient>
<linearGradient id="paint84_linear_175_198" x1="905.009" y1="20.0107" x2="905.009" y2="358.543" gradientUnits="userSpaceOnUse">
<stop stop-color="#F7DD43"/>
<stop offset="1" stop-color="#F7DD43" stop-opacity="0"/>
</linearGradient>
<linearGradient id="paint85_linear_175_198" x1="905.009" y1="20.0107" x2="905.009" y2="358.543" gradientUnits="userSpaceOnUse">
<stop stop-color="#F7DD43"/>
<stop offset="1" stop-color="#F7DD43" stop-opacity="0"/>
</linearGradient>
<linearGradient id="paint86_linear_175_198" x1="905.009" y1="20.0107" x2="905.009" y2="358.543" gradientUnits="userSpaceOnUse">
<stop stop-color="#F7DD43"/>
<stop offset="1" stop-color="#F7DD43" stop-opacity="0"/>
</linearGradient>
<linearGradient id="paint87_linear_175_198" x1="905.009" y1="20.0107" x2="905.009" y2="358.543" gradientUnits="userSpaceOnUse">
<stop stop-color="#F7DD43"/>
<stop offset="1" stop-color="#F7DD43" stop-opacity="0"/>
</linearGradient>
<linearGradient id="paint88_linear_175_198" x1="905.009" y1="20.0107" x2="905.009" y2="358.543" gradientUnits="userSpaceOnUse">
<stop stop-color="#F7DD43"/>
<stop offset="1" stop-color="#F7DD43" stop-opacity="0"/>
</linearGradient>
<linearGradient id="paint89_linear_175_198" x1="905.009" y1="20.0107" x2="905.009" y2="358.543" gradientUnits="userSpaceOnUse">
<stop stop-color="#F7DD43"/>
<stop offset="1" stop-color="#F7DD43" stop-opacity="0"/>
</linearGradient>
<linearGradient id="paint90_linear_175_198" x1="905.009" y1="20.0107" x2="905.009" y2="358.543" gradientUnits="userSpaceOnUse">
<stop stop-color="#F7DD43"/>
<stop offset="1" stop-color="#F7DD43" stop-opacity="0"/>
</linearGradient>
<linearGradient id="paint91_linear_175_198" x1="905.009" y1="20.0107" x2="905.009" y2="358.543" gradientUnits="userSpaceOnUse">
<stop stop-color="#F7DD43"/>
<stop offset="1" stop-color="#F7DD43" stop-opacity="0"/>
</linearGradient>
<linearGradient id="paint92_linear_175_198" x1="905.009" y1="20.0107" x2="905.009" y2="358.543" gradientUnits="userSpaceOnUse">
<stop stop-color="#F7DD43"/>
<stop offset="1" stop-color="#F7DD43" stop-opacity="0"/>
</linearGradient>
<linearGradient id="paint93_linear_175_198" x1="905.009" y1="20.0107" x2="905.009" y2="358.543" gradientUnits="userSpaceOnUse">
<stop stop-color="#F7DD43"/>
<stop offset="1" stop-color="#F7DD43" stop-opacity="0"/>
</linearGradient>
</defs>
</svg>
